<?xml version="1.0" standalone="no"?>
<!DOCTYPE svg PUBLIC "-//W3C//DTD SVG 20010904//EN"
 "http://www.w3.org/TR/2001/REC-SVG-20010904/DTD/svg10.dtd">
<svg version="1.0" xmlns="http://www.w3.org/2000/svg"
 width="934.000000pt" height="296.000000pt" viewBox="0 0 934.000000 296.000000"
 preserveAspectRatio="xMidYMid meet">
<metadata>
Created by potrace 1.16, written by Peter Selinger 2001-2019
</metadata>
<g transform="translate(0.000000,296.000000) scale(0.100000,-0.100000)"
fill="#FF5485" stroke="none">
<path d="M4623 2532 c-24 -81 -43 -158 -43 -172 0 -62 73 -104 129 -75 32 16
51 42 51 72 1 23 -83 323 -90 323 -3 0 -24 -66 -47 -148z"/>
<path d="M4180 2436 c0 -14 164 -296 181 -312 33 -30 87 -23 120 14 60 67 38
101 -125 198 -72 43 -141 84 -153 92 -13 8 -23 12 -23 8z"/>
<path d="M5003 2331 c-81 -40 -146 -78 -152 -89 -41 -77 39 -167 116 -130 18
9 50 49 93 120 97 159 102 168 93 168 -5 0 -72 -31 -150 -69z"/>
<path d="M4605 2181 c-48 -29 -67 -57 -72 -104 -13 -114 97 -192 200 -142 45
22 70 60 74 114 9 109 -112 188 -202 132z"/>
<path d="M3863 1985 c-110 -24 -199 -73 -281 -156 -70 -70 -93 -112 -26 -47
74 71 159 123 247 150 103 31 239 23 327 -18 146 -69 251 -194 307 -364 38
-114 58 -271 50 -390 -4 -67 -3 -79 5 -55 6 17 11 107 12 200 0 136 -3 183
-17 235 -65 231 -231 402 -434 445 -82 18 -109 18 -190 0z"/>
<path d="M5283 1985 c-159 -35 -301 -151 -378 -310 -59 -123 -70 -179 -69
-370 1 -93 5 -182 10 -197 6 -19 9 20 10 125 0 119 5 171 22 238 53 217 162
363 332 443 88 41 224 49 327 18 88 -27 173 -79 247 -150 39 -37 52 -46 38
-26 -39 56 -150 152 -214 183 -64 32 -179 61 -233 60 -16 0 -58 -7 -92 -14z"/>
<path d="M3790 1874 c-150 -40 -247 -155 -258 -305 -9 -133 39 -238 130 -283
128 -64 263 1 313 148 18 54 18 56 0 76 -24 27 -61 26 -79 -2 -12 -18 -13 -31
-4 -63 8 -32 7 -48 -5 -77 -23 -55 -69 -80 -139 -75 -109 7 -172 88 -171 222
1 87 26 149 83 204 63 61 134 85 255 85 130 1 191 -22 279 -105 99 -92 154
-214 176 -393 33 -258 -73 -466 -314 -621 -94 -60 -236 -114 -364 -138 l-33
-7 50 50 c57 57 118 153 137 217 51 170 -44 331 -206 350 -94 11 -187 -64
-197 -159 -7 -79 51 -138 137 -138 42 0 52 4 79 35 36 41 43 102 15 130 -30
29 -69 -9 -46 -45 17 -28 15 -47 -8 -70 -57 -57 -168 21 -139 98 27 71 102
112 167 91 92 -30 136 -94 137 -200 0 -56 -5 -76 -38 -142 -46 -93 -117 -173
-189 -212 -52 -29 -55 -30 -208 -29 -229 0 -406 42 -601 139 -147 74 -252 216
-279 377 -15 87 -8 234 14 298 25 71 84 140 146 173 49 26 63 28 122 24 117
-8 178 -70 178 -182 0 -52 -3 -60 -34 -91 -28 -28 -42 -34 -75 -34 -107 0
-159 87 -90 151 34 31 35 62 4 67 -60 8 -97 -119 -55 -186 58 -93 228 -84 275
14 27 57 18 169 -17 222 -42 63 -105 95 -199 100 -74 4 -84 2 -144 -27 -110
-54 -177 -157 -195 -298 -21 -163 17 -334 97 -440 13 -18 21 -33 17 -33 -19 0
-192 129 -623 468 -244 192 -451 312 -636 368 -83 26 -103 28 -260 28 -158 0
-176 -2 -250 -27 -113 -38 -197 -91 -274 -174 -113 -120 -171 -272 -171 -447
0 -170 57 -314 169 -426 140 -140 322 -184 492 -121 167 63 248 176 248 346 0
131 -53 237 -146 292 -43 25 -57 28 -138 28 -78 0 -97 -4 -140 -27 -59 -31
-79 -51 -100 -101 -33 -79 -9 -186 54 -239 82 -69 254 -29 212 49 -15 29 -47
34 -75 12 -87 -68 -176 -18 -176 98 0 89 61 149 162 160 156 16 251 -85 252
-267 1 -76 -2 -91 -29 -139 -54 -98 -176 -161 -311 -161 -170 0 -342 139 -412
333 -23 61 -26 88 -26 182 0 181 48 302 169 423 87 86 192 141 324 168 110 22
284 15 391 -16 142 -40 327 -141 495 -268 68 -52 395 -322 395 -327 0 -1 -26
8 -57 20 -155 63 -339 71 -450 21 -70 -32 -151 -110 -179 -172 -26 -59 -24
-187 3 -239 44 -84 114 -125 210 -125 107 0 168 57 167 155 -2 102 -59 159
-153 152 -44 -3 -59 -9 -78 -32 -26 -29 -26 -43 -1 -59 13 -8 23 -3 47 23 28
30 36 33 69 28 52 -9 82 -46 82 -102 0 -86 -39 -125 -125 -125 -59 0 -104 19
-138 59 -73 87 -56 221 40 313 56 55 123 81 219 86 193 10 409 -65 619 -218
246 -178 470 -284 710 -336 123 -27 398 -24 532 4 226 49 401 131 542 254 138
120 283 145 366 62 74 -74 49 -175 -48 -200 -51 -12 -102 77 -65 114 15 15 43
15 68 0 15 -10 22 -10 32 0 21 21 -4 47 -48 50 -86 6 -122 -86 -64 -161 29
-36 70 -43 124 -18 57 25 86 69 86 132 0 71 -35 128 -101 162 -47 25 -62 28
-119 24 -36 -2 -73 -7 -83 -12 -15 -6 -12 6 16 62 58 115 71 179 70 338 -1
218 -49 366 -158 483 -114 123 -287 171 -455 126z"/>
<path d="M5288 1871 c-198 -65 -315 -232 -348 -495 -22 -171 0 -318 66 -449
32 -65 33 -68 11 -60 -43 16 -160 9 -201 -11 -85 -42 -123 -166 -76 -244 27
-44 100 -78 144 -65 36 10 76 64 76 104 0 42 -45 89 -85 89 -49 0 -65 -9 -65
-36 0 -17 6 -24 19 -24 11 0 23 5 26 10 9 14 48 13 63 -2 20 -20 14 -67 -13
-93 -28 -29 -34 -30 -80 -11 -45 19 -70 69 -61 120 21 113 176 155 301 82 23
-14 80 -56 128 -93 147 -117 309 -190 520 -235 152 -32 402 -32 547 0 236 53
467 164 701 338 99 74 259 153 374 186 63 18 106 22 200 23 111 0 124 -2 176
-28 176 -86 222 -300 87 -400 -34 -25 -126 -34 -168 -17 -39 16 -60 56 -60
114 0 57 30 94 82 103 33 5 41 2 65 -26 30 -34 45 -38 62 -17 28 34 -36 86
-106 86 -80 0 -137 -64 -137 -155 -1 -100 60 -155 169 -155 111 1 190 60 221
167 42 144 -39 301 -190 369 -110 50 -294 41 -448 -21 -32 -12 -58 -21 -58
-19 0 6 287 243 375 311 186 141 353 234 502 280 79 24 103 27 243 27 142 0
162 -2 235 -27 222 -74 365 -231 409 -449 20 -95 20 -153 1 -241 -31 -150
-141 -294 -273 -359 -61 -30 -74 -33 -162 -33 -122 1 -190 26 -260 96 -61 61
-85 130 -78 223 14 165 111 258 256 243 98 -10 162 -71 162 -154 0 -115 -83
-170 -166 -110 -39 27 -69 26 -85 -5 -15 -29 -1 -58 37 -74 45 -19 91 -17 140
5 73 33 110 103 102 197 -6 72 -43 126 -111 161 -45 24 -63 28 -142 28 -80 0
-95 -3 -137 -27 -98 -58 -150 -158 -150 -293 0 -147 71 -263 202 -326 186 -90
382 -54 535 97 187 184 229 479 104 732 -75 153 -203 262 -374 319 -74 25 -92
27 -250 27 -158 0 -176 -2 -260 -27 -216 -67 -411 -188 -795 -493 -210 -166
-368 -285 -454 -340 l-29 -18 36 50 c73 102 99 198 98 362 0 79 -6 122 -20
164 -51 149 -164 238 -301 237 -156 0 -252 -88 -252 -228 0 -73 23 -124 69
-152 68 -42 184 -19 225 45 41 65 2 192 -57 184 -31 -5 -30 -36 4 -67 68 -63
16 -151 -90 -151 -33 0 -47 6 -75 34 -31 31 -34 40 -34 90 0 110 59 173 170
183 113 11 204 -50 263 -175 31 -65 32 -70 31 -202 -1 -112 -4 -145 -22 -194
-50 -135 -136 -238 -247 -293 -209 -106 -376 -146 -610 -147 -159 -1 -160 -1
-213 29 -102 56 -214 212 -228 319 -15 106 46 212 136 236 82 22 170 -40 170
-119 0 -72 -92 -119 -140 -71 -23 23 -25 39 -9 74 9 20 9 29 -1 41 -40 48 -80
-41 -48 -109 32 -72 134 -78 205 -13 49 44 41 128 -18 192 -47 51 -94 70 -155
61 -159 -21 -249 -179 -200 -348 19 -67 102 -195 154 -239 l37 -31 -35 7
c-314 64 -558 236 -646 455 -67 166 -50 396 42 571 47 89 140 178 221 210 81
33 232 33 315 0 130 -51 197 -174 176 -321 -17 -110 -89 -174 -190 -167 -91 5
-135 62 -122 157 7 56 -5 80 -41 80 -12 0 -30 -9 -40 -20 -18 -19 -18 -23 -2
-73 68 -215 326 -238 420 -37 16 35 21 66 21 140 1 85 -2 101 -27 152 -35 72
-110 140 -185 169 -81 31 -227 36 -304 10z"/>
<path d="M1086 1750 c370 -64 702 -237 998 -519 92 -88 52 -28 -59 88 -181
189 -420 337 -649 402 -96 27 -247 49 -326 48 l-65 -1 101 -18z"/>
<path d="M8125 1755 c-302 -48 -580 -197 -805 -431 -114 -119 -158 -183 -64
-93 99 95 184 163 304 242 235 155 436 232 745 286 50 9 49 9 -25 9 -41 0
-111 -6 -155 -13z"/>
<path d="M2610 902 c169 -243 450 -362 732 -308 68 13 193 54 186 61 -2 2 -32
-3 -68 -11 -236 -50 -466 -12 -650 107 -33 21 -102 78 -152 127 l-92 87 44
-63z"/>
<path d="M6664 862 c-144 -137 -288 -208 -471 -233 -111 -15 -248 -5 -368 27
-53 14 17 -18 90 -42 176 -56 361 -41 535 43 81 39 107 59 185 137 72 73 139
158 123 156 -2 -1 -44 -40 -94 -88z"/>
</g>
</svg>
